<svg xmlns="http://www.w3.org/2000/svg" fill="#FFFFFF" viewBox="272 516 1544 888" role="img" aria-label="vst-demon-cli"><path d="M1032.9 820.4q41.3-1.2 81.2 9.5c41.8 11.4 106 58.9 129.6-1.8h23.6c-15.6 44.6-29.2 93.8-43.7 139.1-6.6 20.7-23.7 69-27.1 87.6l-20.4-.2v-1c6.5-52.6-3.6-110.6-36.2-153-36-46.9-107.8-57.9-153.9-19.8a75 75 0 0 0-28.3 51.3c-4 51 48.2 73.2 86.8 90.8 76.8 33.6 161.5 75.4 148.8 174.6-7.5 59.1-34.6 104.2-80.5 142.4-62.3 51.9-139.5 68.7-219 60.9-38.4-5.2-59-14.5-93-30.4-36.5-17-76.2-24.1-94.4 21.9-7.4-.4-15.3-.5-22.7-.6 25.2-86.7 55-172.5 80-259.6l21-.2c-14.6 85.3 9.5 174.5 91 217.5 58.7 31 148.5 7 160.5-65.2 5.4-32.5-12.5-59.9-39.7-76.6-79-48.7-184.5-72.2-186.8-184.7-2.5-119.3 112.4-198.3 223.2-202.5M1297.5 827c22.7 1.4 44.7 1 67.4 1.3l135.8.9q144 1.2 288 4.3c-8.3 20.5-17.7 54.9-24.6 77a7094 7094 0 0 1-47 147.9H1698q1.6-8.5 2.7-16.8c5.8-44.8-.7-105-29.6-141.5-13.8-17.4-32.6-31-55-33.8q-41.9 131.7-82.1 264l-29.5 93.2c-9 28.9-18.7 55-21 85.4-4 57.8 32.2 57.2 77.6 58q-2.8 12.9-6.6 25.6l-17.7-.1-369.7-.1c3.1-8.6 5.4-15.5 7.9-24.3 46.7-.4 91-13.6 117-56.4 10.7-17.6 17.4-40.6 24-60.3q13-39.7 25-79.8l68.3-222c8.7-28 16.2-56.3 25.7-84.2a124 124 0 0 0-37 12.2 337 337 0 0 0-142.7 177.3H1229c8.5-24.8 16.9-59 25.3-85.6l26.9-86.7c5.3-17.3 12.2-38 16.2-55.5"/><path d="M677.5 829.2c75.1-.1 151.8-2 226.7-.7-1.6 7-4.4 15.5-6.5 22.6l-5 1a147 147 0 0 0-40.7 18c-66.3 39.7-106.3 105.2-147.6 168.4l-144.7 218.9c-26.2 39.6-62.7 91.4-85.5 131.6l-41-.7c-5.4-35.1-9.2-70.6-14-105.8l-30-215.7-11.7-84.2c-9-65-14.3-130.6-96.1-130.7 2-6 4.4-12.5 6.6-18.5 36.8-1.3 78-.6 115.3-1.1l234.3-3.8h19q-4.4 11.1-8.3 22.4c-28.4-.1-60 4-77.6 29.2-20.2 29-14.9 63.8-12.2 97q4 46.5 8.8 93c3.1 30.2 6 74.4 11 102.8 30.3-45.5 58.8-95.7 88.2-142 16.9-26.8 35.8-55 50.9-82.3 7.8-16.3 14.7-34 15.8-52.1 2.5-42-28.7-44.7-61.2-45.7a583 583 0 0 0 5.5-21.6M355.1 519c.5 2.4-7.9 36.2-8.9 42.8-16.1 109.9 28.4 197.4 125.8 250.5q-36-.1-71.6.2c-36.9.8-75.4 0-112.5.3-35.7-100.3 0-215.1 67.2-293.9M1732.4 517.6c10.4 7.7 31 40.2 37.4 51.4 32.3 57.5 51.8 125.1 43 191.3a334 334 0 0 1-12 52.4q-54.8.3-109.7-.7-35.7-.9-71.4-1.3c33-20.9 51.2-30.4 77.2-62.4 56.2-69.1 60.7-148.8 35.5-230.7"/></svg>
